<svg xmlns="http://www.w3.org/2000/svg" viewBox="0 0 800 520" role="img" aria-label="磨飯餐點圖片"><defs><linearGradient id="bg" x1="0" y1="0" x2="1" y2="1"><stop stop-color="#fff8f1"/><stop offset="1" stop-color="#ead8c8"/></linearGradient><linearGradient id="bowl" x1="0" y1="0" x2="0" y2="1"><stop stop-color="#f36a31"/><stop offset="1" stop-color="#d94b18"/></linearGradient></defs><rect width="800" height="520" fill="url(#bg)"/><circle cx="400" cy="245" r="168" fill="#fff" opacity=".92"/><ellipse cx="400" cy="238" rx="138" ry="82" fill="#f3e3d4"/><path d="M270 244h260c-8 110-58 164-130 164s-122-54-130-164Z" fill="url(#bowl)"/><ellipse cx="400" cy="244" rx="130" ry="34" fill="#f5c46f"/><circle cx="356" cy="230" r="26" fill="#6f9b50"/><circle cx="421" cy="220" r="30" fill="#c96f43"/><circle cx="468" cy="242" r="22" fill="#7fa25b"/><path d="M330 194c20-32 35-45 55-61M397 185c9-37 6-54 1-76M460 195c-3-28 8-49 28-69" stroke="#d7b89f" stroke-width="12" stroke-linecap="round" fill="none"/><text x="400" y="468" text-anchor="middle" font-family="-apple-system,BlinkMacSystemFont,'PingFang HK','Noto Sans TC',sans-serif" font-size="34" font-weight="700" fill="#8b5f45">磨飯餐點</text></svg>